<svg width="340" height="219" viewBox="0 0 340 219" fill="none" xmlns="http://www.w3.org/2000/svg">
<path d="M145 200H195V210H145V200Z" fill="#94A3B8"/>
<path d="M340 195V5C340 2.23858 337.761 0 335 0H5C2.23858 0 0 2.23857 0 5V195C0 197.761 2.23858 200 5 200H335C337.761 200 340 197.761 340 195Z" fill="#94A3B8"/>
<path d="M330 190V10H10V190H330Z" fill="black"/>
<path d="M167.878 193.043C168.866 192.408 170.134 192.408 171.122 193.043L202.91 213.476C205.428 215.095 204.282 219 201.287 219H137.713C134.718 219 133.572 215.095 136.09 213.476L167.878 193.043Z" fill="#94A3B8"/>
<path d="M145 199.5H144.5H5C2.51472 199.5 0.5 197.485 0.5 195V5C0.5 2.51471 2.51472 0.5 5 0.5H335C337.485 0.5 339.5 2.51472 339.5 5V195C339.5 197.485 337.485 199.5 335 199.5H195.5H195H182.092L171.393 192.622C170.24 191.881 168.76 191.881 167.607 192.622L156.908 199.5H145ZM194.5 200.5V207.476L183.648 200.5H194.5ZM170.852 193.463L180.243 199.5H158.757L168.148 193.463C168.972 192.934 170.028 192.934 170.852 193.463ZM157.202 200.5H181.798L194.5 208.665V209.5H145.5V208.022L157.202 200.5ZM145.5 200.5H155.352L145.5 206.833V200.5ZM195.5 210V209.308L202.639 213.897C204.738 215.246 203.783 218.5 201.287 218.5H137.713C135.218 218.5 134.262 215.246 136.361 213.897L144.5 208.665V210V210.5H145H195H195.5V210ZM330.5 10V9.5H330H10H9.5V10V190V190.5H10H330H330.5V190V10ZM10.5 10.5H329.5V189.5H10.5V10.5Z" stroke="#94A3B8"/>
</svg>
