<?xml version="1.0" standalone="no"?>
<!DOCTYPE svg PUBLIC "-//W3C//DTD SVG 20010904//EN"
 "http://www.w3.org/TR/2001/REC-SVG-20010904/DTD/svg10.dtd">
<svg version="1.0" xmlns="http://www.w3.org/2000/svg"
 width="512.000000pt" height="512.000000pt" viewBox="0 0 512.000000 512.000000"
 preserveAspectRatio="xMidYMid meet">
<metadata>
Created by potrace 1.14, written by Peter Selinger 2001-2017
</metadata>
<g transform="translate(0.000000,512.000000) scale(0.100000,-0.100000)"
fill="#000000" stroke="none">
<path d="M0 2560 l0 -2560 2560 0 2560 0 0 2560 0 2560 -2560 0 -2560 0 0
-2560z m4487 1135 c213 -34 368 -126 430 -254 37 -73 39 -174 6 -237 -42 -79
-130 -132 -234 -141 l-59 -6 0 40 c0 48 -33 180 -56 224 -30 60 -111 135 -177
165 -58 27 -70 29 -192 29 -149 -1 -221 -16 -330 -70 -91 -45 -153 -99 -210
-184 -128 -193 -188 -465 -187 -851 0 -440 81 -715 267 -906 127 -130 259
-178 485 -177 260 0 416 64 577 236 l61 66 20 -22 c33 -37 42 -63 42 -122 0
-194 -245 -358 -592 -395 -471 -50 -830 103 -1052 447 -259 403 -287 1143 -60
1595 101 201 272 377 459 470 70 35 196 75 290 92 110 19 394 20 512 1z
m-3277 -94 l0 -79 -87 -4 c-119 -6 -192 -38 -225 -100 -23 -43 -23 -46 -26
-455 l-3 -413 581 0 581 0 -3 408 c-3 406 -3 407 -27 456 -33 67 -97 97 -222
104 l-89 5 0 78 0 79 523 -2 522 -3 0 -75 0 -75 -85 -6 c-90 -7 -161 -28 -193
-57 -11 -9 -28 -35 -38 -57 -18 -38 -19 -90 -19 -1010 l0 -971 23 -44 c12 -25
36 -53 53 -63 39 -22 153 -47 217 -47 l47 0 0 -75 0 -75 -525 0 -525 0 0 74 0
73 73 6 c80 7 155 27 192 51 14 9 35 35 47 59 23 42 23 46 26 510 l3 467 -580
0 -581 0 0 -440 c0 -467 4 -520 46 -570 33 -38 115 -68 214 -76 l80 -7 0 -73
0 -74 -525 0 -525 0 0 74 0 73 78 7 c134 11 197 39 236 106 21 35 21 47 24
1005 2 858 1 975 -13 1011 -30 79 -93 112 -235 123 l-85 6 -3 64 c-2 35 -1 70
2 77 4 12 97 14 526 14 l520 0 0 -79z"/>
</g>
</svg>
